<svg xmlns="http://www.w3.org/2000/svg" viewBox="0 0 41 41"><defs><style>.cls-1{fill:#fff;}</style></defs><g id="レイヤー_2" data-name="レイヤー 2"><g id="トップ画面"><g id="上部バー"><g id="インフォメーション"><path class="cls-1" d="M20.5,2A18.5,18.5,0,1,1,2,20.5,18.52,18.52,0,0,1,20.5,2m0-2A20.5,20.5,0,1,0,41,20.5,20.5,20.5,0,0,0,20.5,0Z"/><path class="cls-1" d="M22.12,13.55A1.56,1.56,0,1,1,20.57,12,1.53,1.53,0,0,1,22.12,13.55ZM19.45,19A1,1,0,0,1,20.55,18,1,1,0,0,1,21.65,19V29.47a1,1,0,0,1-1.1,1.05,1,1,0,0,1-1.1-1.05Z"/></g></g></g></g></svg>